<svg preserveAspectRatio="none" width="100%" height="100%" overflow="visible" style="display: block;" viewBox="0 0 240 240" fill="none" xmlns="http://www.w3.org/2000/svg">
<g id="Decorative Elements">
<path id="Vector" d="M120 240C186.274 240 240 186.274 240 120C240 53.7258 186.274 0 120 0C53.7258 0 0 53.7258 0 120C0 186.274 53.7258 240 120 240Z" fill="#F9F6D5" fill-opacity="0.3"/>
<path id="Vector_2" d="M121.75 218C176.012 218 220 174.012 220 119.75C220 65.488 176.012 21.5 121.75 21.5C67.488 21.5 23.5 65.488 23.5 119.75C23.5 174.012 67.488 218 121.75 218Z" fill="#F9F6D5"/>
<path id="Vector_3" d="M197.026 131.04C203.367 89.3599 174.719 50.4316 133.04 44.0907C91.36 37.7498 52.4317 66.3975 46.0908 108.077C39.7499 149.757 68.3975 188.685 110.077 195.026C151.757 201.367 190.685 172.719 197.026 131.04Z" fill="#FFFCDB"/>
<path id="Vector_4" d="M122.5 171C150.39 171 173 148.39 173 120.5C173 92.6096 150.39 70 122.5 70C94.6097 70 72 92.6096 72 120.5C72 148.39 94.6097 171 122.5 171Z" fill="#FEFEFF"/>
</g>
</svg>
