<svg preserveAspectRatio="none" width="100%" height="100%" overflow="visible" style="display: block;" viewBox="0 0 239 240" fill="none" xmlns="http://www.w3.org/2000/svg">
<g id="Frame">
<path id="Vector" d="M119.5 240C185.498 240 239 186.274 239 120C239 53.7258 185.498 0 119.5 0C53.502 0 0 53.7258 0 120C0 186.274 53.502 240 119.5 240Z" fill="#A193BE"/>
<path id="Vector_2" d="M121.243 218C175.279 218 219.084 174.012 219.084 119.75C219.084 65.488 175.279 21.5 121.243 21.5C67.207 21.5 23.4023 65.488 23.4023 119.75C23.4023 174.012 67.207 218 121.243 218Z" fill="#BBB0D0"/>
<path id="Vector_3" d="M196.205 131.04C202.52 89.36 173.991 50.4316 132.485 44.0907C90.9794 37.7498 52.2133 66.3975 45.8988 108.077C39.5843 149.757 68.1126 188.685 109.619 195.026C151.125 201.367 189.891 172.719 196.205 131.04Z" fill="#C5BDD6"/>
<path id="Vector_4" d="M121.99 171C149.764 171 172.279 148.39 172.279 120.5C172.279 92.6096 149.764 70 121.99 70C94.2156 70 71.7002 92.6096 71.7002 120.5C71.7002 148.39 94.2156 171 121.99 171Z" fill="#FFFDF0"/>
</g>
</svg>
