<svg preserveAspectRatio="none" width="100%" height="100%" overflow="visible" style="display: block;" viewBox="0 0 240 240" fill="none" xmlns="http://www.w3.org/2000/svg">
<g id="Moon Container">
<path id="Vector" d="M120 240C186.274 240 240 186.274 240 120C240 53.7258 186.274 0 120 0C53.7258 0 0 53.7258 0 120C0 186.274 53.7258 240 120 240Z" fill="#155278"/>
<path id="Vector_2" d="M121.75 210C176.012 210 220 166.012 220 111.75C220 57.488 176.012 13.5 121.75 13.5C67.488 13.5 23.5 57.488 23.5 111.75C23.5 166.012 67.488 210 121.75 210Z" fill="#3C5D84"/>
<path id="Vector_3" d="M197.026 123.04C203.367 81.3599 174.719 42.4316 133.04 36.0907C91.36 29.7498 52.4317 58.3975 46.0908 100.077C39.7499 141.757 68.3975 180.685 110.077 187.026C151.757 193.367 190.685 164.719 197.026 123.04Z" fill="#446B90"/>
<path id="Vector_4" d="M147.405 101.625C144.294 92.2254 137.154 85.2674 128.511 82C130.161 84.3968 131.52 87.0468 132.478 89.943C137.951 106.488 128.875 124.306 112.204 129.738C105.004 132.083 97.5705 131.726 91 129.242C98.7727 140.539 113.378 145.902 127.131 141.42C143.802 135.989 152.881 118.17 147.405 101.625Z" fill="#FFFDF0"/>
</g>
</svg>
