<svg xmlns="http://www.w3.org/2000/svg" width="12" height="12" viewBox="0 0 12 12" fill="none">
  <path d="M9.50014 3.00028C8.34034 3.00028 6.98538 2.33169 6.05525 1.51995V1.52037C6.03988 1.50729 6.02018 1.50028 6 1.50028C5.97981 1.50031 5.96011 1.50725 5.94475 1.52037C5.02012 2.32656 3.66031 3.00022 2.50028 3.00028V6.50042C2.50029 7.61829 2.88553 8.43078 3.49344 9.05343C4.07619 9.65027 4.88342 10.092 5.81124 10.4312L5.99833 10.4978L6.00921 10.5015C7.0118 10.1517 7.88649 9.69123 8.50698 9.05469C9.11463 8.43124 9.50013 7.61833 9.50014 6.50042V3.00028ZM10.5 6.50042C10.5 7.88245 10.0104 8.94459 9.22307 9.75237C8.44938 10.5462 7.41052 11.0724 6.33482 11.4474L6.33064 11.4491C6.11652 11.5216 5.88442 11.5187 5.67188 11.4424V11.4428C5.66812 11.4415 5.66433 11.4403 5.66057 11.439V11.4386C4.5861 11.0664 3.55007 10.5428 2.77818 9.75237C1.98992 8.94506 1.50001 7.88243 1.5 6.50042V3.00028C1.50002 2.73514 1.60551 2.48089 1.79297 2.29339C1.9805 2.10585 2.23506 2.00042 2.50028 2.00042C3.33845 2.00036 4.47582 1.47579 5.29102 0.763672L5.2952 0.760324C5.49163 0.592502 5.74165 0.500033 6 0.5C6.25839 0.5 6.50834 0.592482 6.7048 0.760324L6.7094 0.76409C7.52915 1.48072 8.66164 2.00042 9.50014 2.00042C9.76536 2.00042 10.0199 2.10585 10.2074 2.29339C10.3949 2.48089 10.5 2.73517 10.5 3.00028V6.50042Z" fill="currentColor"/>
  <path d="M7.14634 4.64645C7.3416 4.45118 7.65839 4.45118 7.85365 4.64645C8.04891 4.84171 8.04891 5.15849 7.85365 5.35376L5.85351 7.35348C5.65825 7.54874 5.34188 7.54874 5.14662 7.35348L4.14634 6.35362C3.9512 6.1584 3.95124 5.84198 4.14634 5.64673C4.3416 5.45146 4.65839 5.45146 4.85365 5.64673L5.49986 6.29293L7.14634 4.64645Z" fill="currentColor"/>
</svg>
