<svg preserveAspectRatio="none" width="100%" height="100%" overflow="visible" style="display: block;" viewBox="0 0 13 13" fill="none" xmlns="http://www.w3.org/2000/svg">
<path fill-rule="evenodd" clip-rule="evenodd" d="M5.4837 0.0790882C5.81524 0.0269862 6.1547 0 6.5 0C6.8453 0 7.18476 0.0269862 7.5163 0.0790883C7.89626 0.138801 8.15588 0.495229 8.09616 0.875193C8.03645 1.25516 7.68002 1.51477 7.30006 1.45506C7.0398 1.41416 6.77262 1.39286 6.5 1.39286C6.22738 1.39286 5.9602 1.41416 5.69994 1.45506C5.31998 1.51477 4.96355 1.25516 4.90384 0.875192C4.84412 0.495229 5.10374 0.138801 5.4837 0.0790882ZM3.65165 1.39464C3.87797 1.70563 3.80935 2.14121 3.49836 2.36754C3.06495 2.68296 2.68296 3.06495 2.36754 3.49836C2.14121 3.80935 1.70563 3.87797 1.39464 3.65164C1.08365 3.42531 1.01502 2.98973 1.24135 2.67875C1.64234 2.12777 2.12777 1.64234 2.67875 1.24135C2.98973 1.01502 3.42532 1.08365 3.65165 1.39464ZM9.34836 1.39464C9.57468 1.08365 10.0103 1.01502 10.3213 1.24135C10.8722 1.64234 11.3577 2.12777 11.7586 2.67875C11.985 2.98973 11.9163 3.42532 11.6054 3.65165C11.2944 3.87797 10.8588 3.80935 10.6325 3.49836C10.317 3.06495 9.93505 2.68296 9.50164 2.36754C9.19065 2.14121 9.12203 1.70563 9.34836 1.39464ZM0.875193 4.90383C1.25516 4.96355 1.51477 5.31998 1.45506 5.69994C1.41416 5.9602 1.39286 6.22738 1.39286 6.5C1.39286 6.77262 1.41416 7.0398 1.45506 7.30006C1.51477 7.68002 1.25516 8.03645 0.875192 8.09616C0.495229 8.15588 0.138801 7.89626 0.0790882 7.5163C0.0269862 7.18476 0 6.8453 0 6.5C0 6.1547 0.0269862 5.81523 0.0790883 5.4837C0.138801 5.10374 0.495229 4.84412 0.875193 4.90383ZM12.1248 4.90384C12.5048 4.84412 12.8612 5.10374 12.9209 5.4837C12.973 5.81524 13 6.1547 13 6.5C13 6.8453 12.973 7.18476 12.9209 7.5163C12.8612 7.89626 12.5048 8.15588 12.1248 8.09616C11.7448 8.03645 11.4852 7.68002 11.5449 7.30006C11.5858 7.0398 11.6071 6.77262 11.6071 6.5C11.6071 6.22738 11.5858 5.9602 11.5449 5.69994C11.4852 5.31998 11.7448 4.96355 12.1248 4.90384ZM1.39464 9.34835C1.70563 9.12203 2.14121 9.19065 2.36754 9.50164C2.68296 9.93505 3.06495 10.317 3.49836 10.6325C3.80935 10.8588 3.87797 11.2944 3.65164 11.6054C3.42531 11.9163 2.98973 11.985 2.67875 11.7586C2.12777 11.3577 1.64234 10.8722 1.24135 10.3213C1.01502 10.0103 1.08365 9.57468 1.39464 9.34835ZM11.6054 9.34836C11.9163 9.57468 11.985 10.0103 11.7586 10.3213C11.3577 10.8722 10.8722 11.3577 10.3213 11.7586C10.0103 11.985 9.57468 11.9163 9.34835 11.6054C9.12203 11.2944 9.19065 10.8588 9.50164 10.6325C9.93505 10.317 10.317 9.93505 10.6325 9.50164C10.8588 9.19065 11.2944 9.12203 11.6054 9.34836ZM4.90383 12.1248C4.96355 11.7448 5.31998 11.4852 5.69994 11.5449C5.9602 11.5858 6.22738 11.6071 6.5 11.6071C6.77262 11.6071 7.0398 11.5858 7.30006 11.5449C7.68002 11.4852 8.03645 11.7448 8.09616 12.1248C8.15588 12.5048 7.89626 12.8612 7.5163 12.9209C7.18476 12.973 6.8453 13 6.5 13C6.1547 13 5.81523 12.973 5.4837 12.9209C5.10374 12.8612 4.84412 12.5048 4.90383 12.1248Z" fill="currentColor"/>
</svg>
