<svg preserveAspectRatio="none" width="100%" height="100%" overflow="visible" style="display: block;" viewBox="0 0 128.24 39.6537" fill="none" xmlns="http://www.w3.org/2000/svg">
<g id="Group 41">
<path id="Vector" d="M0.87591 10.6904C1.35966 10.6904 1.75182 10.2982 1.75182 9.81447C1.75182 9.33072 1.35966 8.93856 0.87591 8.93856C0.392163 8.93856 0 9.33072 0 9.81447C0 10.2982 0.392163 10.6904 0.87591 10.6904Z" fill="white" fill-opacity="0.2"/>
<path id="Vector_2" d="M23.2654 38.1052C23.2654 38.5894 22.8721 38.9827 22.388 38.9827C21.9038 38.9827 21.5121 38.5894 21.5121 38.1052C21.5121 37.621 21.9038 37.2293 22.388 37.2293C22.8721 37.2278 23.2654 37.621 23.2654 38.1052Z" fill="white" fill-opacity="0.2"/>
<path id="Vector_3" d="M94.1037 0.87591C94.1037 1.36008 93.7104 1.75182 93.2262 1.75182C92.742 1.75182 92.3503 1.36008 92.3503 0.87591C92.3503 0.391736 92.742 0 93.2262 0C93.7104 0 94.1037 0.391736 94.1037 0.87591Z" fill="white" fill-opacity="0.2"/>
<path id="Vector_4" d="M31.1574 10.9413C31.6412 10.9413 32.0333 10.5492 32.0333 10.0654C32.0333 9.58167 31.6412 9.18951 31.1574 9.18951C30.6737 9.18951 30.2815 9.58167 30.2815 10.0654C30.2815 10.5492 30.6737 10.9413 31.1574 10.9413Z" fill="white" fill-opacity="0.2"/>
<path id="Vector_5" d="M127.364 6.90471C127.848 6.90471 128.24 6.51254 128.24 6.0288C128.24 5.54505 127.848 5.15289 127.364 5.15289C126.88 5.15289 126.488 5.54505 126.488 6.0288C126.488 6.51254 126.88 6.90471 127.364 6.90471Z" fill="white" fill-opacity="0.2"/>
<path id="Vector_6" d="M64.1298 39.6536C64.6136 39.6536 65.0057 39.2615 65.0057 38.7777C65.0057 38.294 64.6136 37.9018 64.1298 37.9018C63.6461 37.9018 63.2539 38.294 63.2539 38.7777C63.2539 39.2615 63.6461 39.6536 64.1298 39.6536Z" fill="white" fill-opacity="0.2"/>
<path id="Vector_7" d="M45.2297 5.1849C45.2297 5.66908 44.8379 6.06081 44.3538 6.06081C43.8696 6.06081 43.4763 5.66908 43.4763 5.1849C43.4763 4.70073 43.8696 4.30899 44.3538 4.30899C44.8379 4.30899 45.2297 4.70073 45.2297 5.1849Z" fill="white" fill-opacity="0.2"/>
<path id="Vector_8" d="M115.232 29.5814C115.232 30.0656 114.838 30.4573 114.354 30.4573C113.87 30.4573 113.478 30.064 113.478 29.5814C113.478 29.0972 113.87 28.7039 114.354 28.7039C114.838 28.7039 115.232 29.0972 115.232 29.5814Z" fill="white" fill-opacity="0.2"/>
<path id="Vector_9" d="M68.3415 31.9141C68.3415 32.3983 67.9498 32.7916 67.4656 32.7916C66.9815 32.7916 66.5882 32.3983 66.5882 31.9141C66.5882 31.4299 66.9815 31.0382 67.4656 31.0382C67.9498 31.0382 68.3415 31.4315 68.3415 31.9141Z" fill="white" fill-opacity="0.2"/>
</g>
</svg>
