<svg xmlns="http://www.w3.org/2000/svg" width="170" height="144" viewBox="0 0 170 144" fill="none">
  <path d="M120 144C186.274 144 240 90.2742 240 24C240 -42.2742 186.274 -96 120 -96C53.7258 -96 0 -42.2742 0 24C0 90.2742 53.7258 144 120 144Z" fill="#F9F6D5" fill-opacity="0.3"/>
  <path d="M121.75 122C176.012 122 220 78.012 220 23.75C220 -30.512 176.012 -74.5 121.75 -74.5C67.488 -74.5 23.5 -30.512 23.5 23.75C23.5 78.012 67.488 122 121.75 122Z" fill="#F9F6D5"/>
  <path d="M197.026 35.0396C203.367 -6.64001 174.719 -45.5683 133.04 -51.9092C91.36 -58.2501 52.4317 -29.6024 46.0908 12.0772C39.7499 53.7568 68.3976 92.6851 110.077 99.026C151.757 105.367 190.685 76.7192 197.026 35.0396Z" fill="#FFFCDB"/>
  <path d="M122.5 75C150.39 75 173 52.3904 173 24.5C173 -3.39038 150.39 -26 122.5 -26C94.6097 -26 72 -3.39038 72 24.5C72 52.3904 94.6097 75 122.5 75Z" fill="#FEFEFF"/>
</svg>
