<svg xmlns="http://www.w3.org/2000/svg" width="165" height="140" viewBox="0 0 165 140" fill="none">
  <path d="M120 140C186.274 140 240 86.2742 240 20C240 -46.2742 186.274 -100 120 -100C53.7258 -100 0 -46.2742 0 20C0 86.2742 53.7258 140 120 140Z" fill="#DCD6E6" fill-opacity="0.3"/>
  <path d="M121.75 118C176.012 118 220 74.012 220 19.75C220 -34.512 176.012 -78.5 121.75 -78.5C67.488 -78.5 23.5 -34.512 23.5 19.75C23.5 74.012 67.488 118 121.75 118Z" fill="#DCD6E6"/>
  <path d="M197.026 31.0396C203.367 -10.64 174.719 -49.5683 133.04 -55.9092C91.36 -62.2501 52.4317 -33.6024 46.0908 8.07718C39.7499 49.7568 68.3976 88.6851 110.077 95.026C151.757 101.367 190.685 72.7192 197.026 31.0396Z" fill="#ECE5F2"/>
  <path d="M122.5 71C150.39 71 173 48.3904 173 20.5C173 -7.39038 150.39 -30 122.5 -30C94.6097 -30 72 -7.39038 72 20.5C72 48.3904 94.6097 71 122.5 71Z" fill="#FFFDF5"/>
  <circle cx="30" cy="30" r="2" fill="#FFFFFF" fill-opacity="0.7"/>
  <circle cx="55" cy="90" r="1.5" fill="#FFFFFF" fill-opacity="0.6"/>
  <circle cx="18" cy="70" r="1.5" fill="#FFFFFF" fill-opacity="0.6"/>
</svg>
