<svg preserveAspectRatio="none" width="100%" height="100%" overflow="visible" style="display: block;" viewBox="0 0 73.9197 49.3866" fill="none" xmlns="http://www.w3.org/2000/svg">
<g id="Dots Container">
<path id="Vector" d="M71.1173 48.8012C72.665 48.8012 73.9197 47.5464 73.9197 45.9987C73.9197 44.4509 72.665 43.1963 71.1173 43.1963C69.5695 43.1963 68.3147 44.4509 68.3147 45.9987C68.3147 47.5464 69.5695 48.8012 71.1173 48.8012Z" fill="#387AA0"/>
<path id="Vector_2" d="M39.1714 26.0874C40.7192 26.0874 41.974 24.8327 41.974 23.285C41.974 21.7372 40.7192 20.4825 39.1714 20.4825C37.6237 20.4825 36.369 21.7372 36.369 23.285C36.369 24.8327 37.6237 26.0874 39.1714 26.0874Z" fill="#387AA0"/>
<path id="Vector_3" d="M5.61492 46.5791C5.61492 48.1282 4.3616 49.3866 2.80746 49.3866C1.25834 49.3866 0 48.1282 0 46.5791C0 45.03 1.25834 43.7767 2.80746 43.7767C4.3616 43.7717 5.61492 45.03 5.61492 46.5791Z" fill="#387AA0"/>
<path id="Vector_4" d="M10.6559 5.60498C12.2037 5.60498 13.4585 4.35025 13.4585 2.80249C13.4585 1.25473 12.2037 0 10.6559 0C9.10817 0 7.85352 1.25473 7.85352 2.80249C7.85352 4.35025 9.10817 5.60498 10.6559 5.60498Z" fill="#387AA0"/>
</g>
</svg>
