<svg xmlns="http://www.w3.org/2000/svg" width="16" height="16" viewBox="0 0 16 16" fill="none">
  <path d="M8.83398 2.66699V4.33398C8.83434 5.16211 9.50577 5.83399 10.334 5.83398C11.1619 5.83363 11.8336 5.1619 11.834 4.33398V3.02344C13.1135 3.62473 14 4.92427 14 6.43164C13.9999 6.56147 13.8945 6.66699 13.7646 6.66699H2.23535C2.10549 6.66699 2.00014 6.56147 2 6.43164C2 4.92395 2.88701 3.62456 4.16699 3.02344V4.33398C4.16734 5.16211 4.83878 5.83398 5.66699 5.83398C6.49505 5.83381 7.16664 5.162 7.16699 4.33398V2.66699H8.83398Z" fill="white"/>
  <path d="M2 7.68628C2 7.59046 2 7.54255 2.01296 7.50389C2.03787 7.42955 2.09622 7.37121 2.17055 7.3463C2.20922 7.33334 2.25713 7.33334 2.35294 7.33334H13.6471C13.7429 7.33334 13.7908 7.33334 13.8294 7.3463C13.9038 7.37121 13.9621 7.42955 13.987 7.50389C14 7.54255 14 7.59046 14 7.68628C14 9.21931 14 9.98583 13.7926 10.6045C13.394 11.7939 11.4605 12.7273 11.2712 13.126C10.6525 13.3333 9.88598 13.3333 8.35294 13.3333H7.64706C6.11402 13.3333 5.3475 13.3333 4.72883 13.126C3.53947 12.7273 2.60599 11.7939 2.20736 10.6045C2 9.98583 2 9.21931 2 7.68628Z" fill="white" fill-opacity="0.3"/>
  <path d="M5.66662 1.66667L5.66663 4.33333" stroke="white" stroke-linecap="round"/>
  <path d="M10.3334 1.66667L10.3334 4.33333" stroke="white" stroke-linecap="round"/>
</svg>
