<svg xmlns="http://www.w3.org/2000/svg" width="21" height="21" viewBox="0 0 21 21" fill="none">
  <path fill-rule="evenodd" clip-rule="evenodd" d="M8.85828 0.127758C9.39384 0.043593 9.94221 0 10.5 0C11.0578 0 11.6062 0.0435931 12.1417 0.127758C12.7555 0.224217 13.1749 0.799985 13.0784 1.41377C12.982 2.02756 12.4062 2.44694 11.7924 2.35048C11.372 2.28441 10.9404 2.25 10.5 2.25C10.0596 2.25 9.62802 2.28441 9.20759 2.35048C8.59381 2.44694 8.01804 2.02756 7.92158 1.41377C7.82512 0.799985 8.2445 0.224217 8.85828 0.127758ZM5.89881 2.25288C6.26442 2.75524 6.15356 3.45887 5.6512 3.82448C4.95107 4.33402 4.33402 4.95107 3.82448 5.65119C3.45887 6.15356 2.75524 6.26442 2.25288 5.89881C1.75052 5.5332 1.63966 4.82957 2.00526 4.32721C2.65301 3.43717 3.43717 2.65301 4.32721 2.00526C4.82957 1.63965 5.5332 1.75052 5.89881 2.25288ZM15.1012 2.25288C15.4668 1.75052 16.1704 1.63966 16.6728 2.00526C17.5628 2.65301 18.347 3.43717 18.9947 4.32721C19.3603 4.82957 19.2495 5.5332 18.7471 5.89881C18.2448 6.26442 17.5411 6.15356 17.1755 5.6512C16.666 4.95107 16.0489 4.33402 15.3488 3.82448C14.8464 3.45887 14.7356 2.75524 15.1012 2.25288ZM1.41377 7.92158C2.02756 8.01804 2.44694 8.59381 2.35048 9.20759C2.28441 9.62802 2.25 10.0596 2.25 10.5C2.25 10.9404 2.28441 11.372 2.35048 11.7924C2.44694 12.4062 2.02756 12.982 1.41377 13.0784C0.799985 13.1749 0.224217 12.7555 0.127758 12.1417C0.043593 11.6062 0 11.0578 0 10.5C0 9.94221 0.0435931 9.39384 0.127758 8.85828C0.224217 8.2445 0.799985 7.82512 1.41377 7.92158ZM19.5862 7.92158C20.2 7.82512 20.7758 8.2445 20.8722 8.85828C20.9564 9.39384 21 9.94221 21 10.5C21 11.0578 20.9564 11.6062 20.8722 12.1417C20.7758 12.7555 20.2 13.1749 19.5862 13.0784C18.9724 12.982 18.5531 12.4062 18.6495 11.7924C18.7156 11.372 18.75 10.9404 18.75 10.5C18.75 10.0596 18.7156 9.62802 18.6495 9.20759C18.5531 8.59381 18.9724 8.01804 19.5862 7.92158ZM2.25288 15.1012C2.75524 14.7356 3.45887 14.8464 3.82448 15.3488C4.33402 16.0489 4.95107 16.666 5.65119 17.1755C6.15356 17.5411 6.26442 18.2448 5.89881 18.7471C5.5332 19.2495 4.82957 19.3603 4.32721 18.9947C3.43717 18.347 2.65301 17.5628 2.00526 16.6728C1.63965 16.1704 1.75052 15.4668 2.25288 15.1012ZM18.7471 15.1012C19.2495 15.4668 19.3603 16.1704 18.9947 16.6728C18.347 17.5628 17.5628 18.347 16.6728 18.9947C16.1704 19.3603 15.4668 19.2495 15.1012 18.7471C14.7356 18.2448 14.8464 17.5411 15.3488 17.1755C16.0489 16.666 16.666 16.0489 17.1755 15.3488C17.5411 14.8464 18.2448 14.7356 18.7471 15.1012ZM7.92158 19.5862C8.01804 18.9724 8.59381 18.5531 9.20759 18.6495C9.62802 18.7156 10.0596 18.75 10.5 18.75C10.9404 18.75 11.372 18.7156 11.7924 18.6495C12.4062 18.5531 12.982 18.9724 13.0784 19.5862C13.1749 20.2 12.7555 20.7758 12.1417 20.8722C11.6062 20.9564 11.0578 21 10.5 21C9.94221 21 9.39384 20.9564 8.85828 20.8722C8.2445 20.7758 7.82512 20.2 7.92158 19.5862Z" fill="#3E453F"/>
</svg>
