<svg preserveAspectRatio="none" width="100%" height="100%" overflow="visible" style="display: block;" viewBox="0 0 10.666 13.334" fill="none" xmlns="http://www.w3.org/2000/svg">
<path id="Subtract" d="M5 2.66699C5 3.10988 4.9983 3.54317 5.0459 3.89746C5.09744 4.28052 5.22296 4.71799 5.58594 5.08105C5.94909 5.44402 6.38644 5.57057 6.76953 5.62207C7.12388 5.66966 7.55705 5.66699 8 5.66699H10.666V9.33398C10.666 11.2194 10.6658 12.1623 10.0801 12.748C9.49427 13.3335 8.55128 13.334 6.66602 13.334H4C2.11473 13.334 1.17175 13.3335 0.585938 12.748C0.00018483 12.1623 1.94663e-09 11.2194 0 9.33398V4C1.93668e-09 2.1146 0.000184743 1.17169 0.585938 0.585938C1.17175 0.000476614 2.11473 0 4 0H5V2.66699ZM3.33301 9C2.78083 9 2.33318 9.44786 2.33301 10C2.33301 10.5523 2.78072 11 3.33301 11H6C6.55214 10.9998 7 10.5522 7 10C6.99982 9.44797 6.55203 9.00018 6 9H3.33301ZM3.33301 6.33398C2.78072 6.33398 2.33301 6.7817 2.33301 7.33398C2.33318 7.88612 2.78083 8.33398 3.33301 8.33398H7.33301C7.88518 8.33398 8.33283 7.88612 8.33301 7.33398C8.33301 6.7817 7.88529 6.33398 7.33301 6.33398H3.33301ZM7 0.0292969C7.10838 0.0442359 7.20177 0.0646011 7.29102 0.101562C7.53604 0.203056 7.72888 0.395876 8.11426 0.78125L9.88574 2.55273C10.2709 2.93792 10.463 3.13101 10.5645 3.37598C10.6014 3.46524 10.6208 3.55859 10.6357 3.66699H8C7.50078 3.66699 7.2263 3.66515 7.03613 3.63965C7.03361 3.63931 7.03074 3.63811 7.02832 3.6377C7.02805 3.63574 7.02763 3.63293 7.02734 3.63086C7.00184 3.44073 7 3.16601 7 2.66699V0.0292969Z" fill="#1D8B6B"/>
</svg>
