<svg xmlns="http://www.w3.org/2000/svg" width="165" height="140" viewBox="0 0 165 140" fill="none">
  <path d="M120 140C186.274 140 240 86.2742 240 20C240 -46.2742 186.274 -100 120 -100C53.7258 -100 0 -46.2742 0 20C0 86.2742 53.7258 140 120 140Z" fill="#155278" fill-opacity="0.35"/>
  <path d="M121.75 118C176.012 118 220 74.012 220 19.75C220 -34.512 176.012 -78.5 121.75 -78.5C67.488 -78.5 23.5 -34.512 23.5 19.75C23.5 74.012 67.488 118 121.75 118Z" fill="#3C5D84"/>
  <path d="M197.026 31.0396C203.367 -10.64 174.719 -49.5683 133.04 -55.9092C91.36 -62.2501 52.4317 -33.6024 46.0908 8.07718C39.7499 49.7568 68.3976 88.6851 110.077 95.026C151.757 101.367 190.685 72.7192 197.026 31.0396Z" fill="#446B90"/>
  <path transform="translate(99.32 15.57) scale(0.93)" d="M56.4048 19.6252C53.2944 10.2254 46.1542 3.26741 37.5112 0C39.1608 2.39679 40.5204 5.04677 41.478 7.94304C46.951 24.4882 37.8747 42.3063 21.2039 47.7381C14.0043 50.0829 6.57049 49.7256 0 47.2421C7.77274 58.5393 22.3781 63.9017 36.1307 59.4203C52.8016 53.9885 61.8814 36.1704 56.4048 19.6252Z" fill="#FFFDF0"/>
  <circle cx="48" cy="65" r="2.5" fill="#387AA0"/>
  <circle cx="22" cy="40" r="2.5" fill="#387AA0"/>
  <circle cx="10" cy="15" r="2.5" fill="#387AA0"/>
  <circle cx="30" cy="90" r="2.5" fill="#387AA0"/>
</svg>
