<svg width="12" height="12" viewBox="0 0 12 12" fill="none" xmlns="http://www.w3.org/2000/svg">
<path d="M0.108374 11.8885C0.247668 12.0266 0.469507 12.0213 0.608801 11.8778L2.83234 9.58836L2.33192 9.0784L0.108374 11.3679C-0.0309196 11.5113 -0.0412377 11.745 0.108374 11.8885ZM1.89856 9.04652L2.8891 10.0558C3.41532 10.5923 4.13242 10.5764 4.68444 10.008L10.1014 4.43029L9.51331 3.82471L4.10147 9.40243C3.90027 9.60957 3.62684 9.59897 3.41532 9.38117L2.5486 8.49402C2.33708 8.28155 2.33708 8 2.54344 7.78753L7.95529 2.22046L7.36197 1.60956L1.94499 7.1926C1.38265 7.77692 1.36718 8.50996 1.89856 9.04652ZM2.73433 6.63483L4.00345 7.94691C4.10663 8.05314 4.24592 8.04781 4.3491 7.94158C4.4368 7.85128 4.43165 7.6919 4.34394 7.59627L3.06966 6.29485L2.73433 6.63483ZM3.8074 5.54049L5.07653 6.8473C5.17455 6.9482 5.31899 6.9482 5.41704 6.8473C5.50991 6.75167 5.49956 6.59762 5.41186 6.50199L4.14274 5.19523L3.8074 5.54049ZM4.88048 4.43029L6.14961 5.74235C6.24761 5.83798 6.39209 5.84331 6.49009 5.74235C6.58296 5.64678 6.58296 5.49273 6.48497 5.39178L5.21582 4.085L4.88048 4.43029ZM5.95356 3.33069L7.22266 4.64277C7.32071 4.73839 7.46002 4.73839 7.55802 4.64277C7.65089 4.55247 7.64571 4.38779 7.55802 4.29217L6.28374 2.9854L5.95356 3.33069ZM6.50557 1.37052L10.3439 5.32272C10.5038 5.4874 10.7669 5.4874 10.9269 5.32272C11.092 5.15804 11.092 4.88182 10.9269 4.71714L7.09371 0.770256C6.92344 0.58964 6.66553 0.600269 6.50557 0.770256C6.34566 0.934929 6.33536 1.19522 6.50557 1.37052ZM7.4858 1.4927L10.2149 4.31342L10.5864 3.93095C10.7463 3.76628 10.7515 3.49536 10.5864 3.33069L9.83831 2.56043L10.4832 1.89642L11.1023 2.53387C11.2622 2.69855 11.5253 2.69855 11.6852 2.53387C11.8503 2.36388 11.8503 2.09297 11.6852 1.92829L9.93636 0.12749C9.77639 -0.0424968 9.51331 -0.0424968 9.34822 0.12749C9.18825 0.292165 9.18825 0.563084 9.34822 0.727757L9.97244 1.36521L9.32756 2.02922L8.4402 1.11554C8.28029 0.950867 8.01203 0.950867 7.85206 1.11554L7.4858 1.4927Z" fill="white"/>
</svg>
